<svg width="40" height="40" viewBox="0 0 40 40" fill="none" xmlns="http://www.w3.org/2000/svg">
<circle cx="20" cy="20" r="19.5" fill="#223E35" stroke="white"/>
<path d="M25 11.0001C25.2547 10.6992 25.5697 10.4542 25.925 10.2808C26.2803 10.1075 26.6681 10.0095 27.0636 9.99316C27.4592 9.97684 27.8538 10.0425 28.2224 10.186C28.5909 10.3295 28.9254 10.5477 29.2043 10.8267C29.4833 11.1056 29.7006 11.4392 29.8425 11.8062C29.9845 12.1732 30.0478 12.5655 30.0286 12.9581C30.0094 13.3508 29.908 13.7351 29.7309 14.0867C29.5538 14.4383 29.3049 14.7494 29 15.0001L15.5 28.5001L10 30.0001L11.5 24.5001L25 11.0001Z" stroke="white" stroke-width="2" stroke-linecap="round" stroke-linejoin="round"/>
<path d="M23 13L27 17" stroke="white" stroke-width="2" stroke-linecap="round" stroke-linejoin="round"/>
</svg>
